<?xml version="1.0" encoding="utf-8"?>
<!-- Generator: Adobe Illustrator 23.0.4, SVG Export Plug-In . SVG Version: 6.00 Build 0)  -->
<svg version="1.1" id="Layer_2" xmlns="http://www.w3.org/2000/svg" xmlns:xlink="http://www.w3.org/1999/xlink" x="0px" y="0px"
	 viewBox="0 0 500 500" style="enable-background:new 0 0 500 500;" xml:space="preserve">
<style type="text/css">
	.st0{fill:#FFFFFF;}
	.st1{fill:#AAAAAA;}
</style>
<path class="st0" d="M294.25,447.23C295.97,447.33,294.26,447.23,294.25,447.23L294.25,447.23z"/>
<path class="st0" d="M338.63,390.64l-3.37,1.89c-27.37,15.35-62.82,8.87-82-14.98L152.55,252.29L284.89,91.27l8.22-10.01l0.04-0.05
	l4.06-4.94l0.6-0.74l0.77-0.94l16.44-20.85l-17.29,0.05l-13.6,16.62l-0.3,0.36l-1.67,2.04l-2.28,2.79l-0.63,0.77l-5.77,7.05
	L91.24,306.17l0.43,20.21l29.5-35.89l100.24,122.47l0.32,0.39c18.34,22.27,51.82,28.83,77.64,14.43
	c16.42-9.16,30.08-21.9,39.32-37.02L338.63,390.64z"/>
<g>
	<path class="st1" d="M264.15,80.47l0.63-0.77l2.28-2.79l1.67-2.04c-9.5-2.49-19.79-3.86-30.75-3.86c-7.17,0-14.17,0.58-20.93,1.68
		c15.32,2.48,29.34,7.66,41.33,14.83L264.15,80.47z"/>
	<path class="st1" d="M282.48,232.35c40.51-7.93,67.55-34.29,68.22-73.26c0.48-28.02-19.72-58.37-51.28-71.57l-0.6,0.74l-4.06,4.94
		l-0.04,0.05l-8.22,10.01c17.94,14.44,29,34.13,29,55.84c0,33.4-26.15,62.01-63.33,74.06c-7.75,2.51-15.82,3.86-23.95,4.38
		c-0.31,0.02-0.58,0.04-0.8,0.06c93.6,9.56,141.29,51.68,141.29,109.25c0,57.57-47.17,104.91-107.57,110.48
		c3.93,0.36,7.92,0.55,11.95,0.55c66.01,0,119.52-48.34,119.52-111.03C392.59,294.35,358.47,241.78,282.48,232.35z"/>
</g>
</svg>
